#!OML:ASF F:\VICON\USERDATA\INSTALL\rory3\rory3.ASF
:FULLY-SPECIFIED
:DEGREES
490
root -6.743 18.2765 15.3356 -183.723 69.9963 179.78
lowerback 12.9718 6.78815 3.05171
upperback 3.07434 9.5006 -3.0858
thorax -2.92427 4.82294 -6.31319
lowerneck -17.5294 11.5213 -3.40514
upperneck 41.7598 25.7447 -1.61346
head 18.6263 10.5055 5.28741
rclavicle -3.52843e-014 4.45278e-014
rhumerus -32.4469 -9.72581 -79.3492
rradius 41.0483
rwrist 1.3968
rhand -14.7618 7.43729
rfingers 7.12502
rthumb 11.3945 -22.2331
lclavicle -3.52843e-014 4.45278e-014
lhumerus -42.9897 21.8971 71.1951
lradius 23.7451
lwrist -11.5678
lhand -20.4024 25.2087
lfingers 7.12502
lthumb 5.95132 55.1051
rfemur -11.3706 -5.60792 19.7181
rtibia 31.3759
rfoot -4.23276 -2.25405
rtoes -9.73816
lfemur -1.17434 -11.8915 -16.9462
ltibia 43.8373
lfoot 21.1555 -25.503
ltoes 13.2365
491
root -6.85542 18.2697 15.3357 -184.246 69.9455 179.173
lowerback 12.8018 6.64751 2.90032
upperback 3.08407 9.29016 -3.16445
thorax -2.85897 4.72211 -6.26264
lowerneck -17.5806 11.5388 -3.25689
upperneck 41.948 25.7475 -1.52837
head 18.7562 10.5134 5.33176
rclavicle 1.19271e-015 -1.59028e-015
rhumerus -32.6241 -10.192 -79.1581
rradius 40.2009
rwrist 1.44334
rhand -14.8014 7.37893
rfingers 7.12502
rthumb 11.3563 -22.2936
lclavicle 1.19271e-015 -1.59028e-015
lhumerus -42.7297 22.0661 71.1169
lradius 23.9021
lwrist -12.3817
lhand -18.544 25.5214
lfingers 7.12502
lthumb 7.74525 55.3596
rfemur -11.7793 -5.72812 19.3689
rtibia 31.3687
rfoot -4.21647 -2.20774
rtoes -8.87934
lfemur -0.224784 -12.0909 -17.3361
ltibia 42.728
lfoot 22.9428 -25.1404
ltoes 16.0872
492
root -6.98183 18.2576 15.35 -184.218 69.7056 179.09
lowerback 13.0632 6.46687 2.84048
upperback 2.81551 9.02885 -3.20603
thorax -3.31771 4.56419 -6.30615
lowerneck -17.4035 11.5169 -3.17921
upperneck 42.1394 25.6676 -1.34622
head 18.7943 10.5231 5.37999
rclavicle -5.60573e-014 4.77083e-015
rhumerus -33.2428 -10.735 -78.8743
rradius 39.473
rwrist 1.58512
rhand -14.5953 7.47975
rfingers 7.12502
rthumb 11.555 -22.1817
lclavicle -5.60573e-014 4.77083e-015
lhumerus -42.5744 21.5611 71.4082
lradius 23.9574
lwrist -11.4517
lhand -19.4509 25.2673
lfingers 7.12502
lthumb 6.86989 55.1358
rfemur -12.2927 -5.5887 19.2994
rtibia 31.3334
rfoot -4.12303 -2.64501
rtoes -8.33403
lfemur 0.444873 -12.4221 -17.4363
ltibia 41.663
lfoot 24.8581 -24.9787
ltoes 20.3903
493
root -7.10313 18.2421 15.3568 -184.927 69.6083 178.281
lowerback 13.1483 6.37306 2.48222
upperback 2.68069 8.84799 -3.22839
thorax -3.57875 4.4613 -6.13754
lowerneck -17.204 11.4765 -3.22638
upperneck 42.1494 25.5786 -1.30371
head 18.7319 10.5078 5.36194
rclavicle -8.01102e-014 1.11319e-014
rhumerus -33.7821 -11.1766 -78.4562
rradius 38.828
rwrist 1.69815
rhand -14.4747 7.43536
rfingers 7.12502
rthumb 11.6713 -22.2195
lclavicle -8.01102e-014 1.11319e-014
lhumerus -42.1883 20.8947 72.0159
lradius 23.97
lwrist -10.2971
lhand -20.4426 25.1893
lfingers 7.12502
lthumb 5.9125 55.0868
rfemur -12.744 -5.56259 18.9233
rtibia 31.3472
rfoot -4.05864 -2.80956
rtoes -8.78178
lfemur 1.35302 -12.6327 -17.908
ltibia 40.398
lfoot 26.6196 -24.7018
ltoes 23.1009
494
root -7.23238 18.2261 15.3627 -185.328 69.2773 177.829
lowerback 13.1953 6.19283 2.26241
upperback 2.66402 8.57791 -3.21866
thorax -3.68725 4.32379 -5.98095
lowerneck -16.9934 11.4291 -3.11663
upperneck 41.9598 25.445 -1.50659
head 18.6352 10.4689 5.1992
rclavicle 2.5842e-015 2.46493e-014
rhumerus -34.1592 -11.629 -78.0681
rradius 38.2385
rwrist 1.70544
rhand -14.5974 7.45061
rfingers 7.12502
rthumb 11.553 -22.211
lclavicle 2.5842e-015 2.46493e-014
lhumerus -41.6288 20.4345 72.5311
lradius 24.0986
lwrist -10.0222
lhand -20.5638 25.3546
lfingers 7.12502
lthumb 5.79549 55.2554
rfemur -13.1621 -5.71129 18.6395
rtibia 31.3161
rfoot -3.91173 -2.97863
rtoes -9.50503
lfemur 2.12525 -13.0026 -18.2331
ltibia 39.2199
lfoot 28.2096 -24.3757
ltoes 23.2025
